<svg xmlns="http://www.w3.org/2000/svg" width="278" height="290" viewBox="0 0 278 290">
  <defs>
    <style>
      .cls-1 {
        fill: #fff;
        fill-rule: evenodd;
      }
    </style>
  </defs>
  <g id="logo">
    <path id="みずいろスタジオロゴ_のコピー" data-name="みずいろスタジオロゴ のコピー" class="cls-1" d="M392.358,769.462c0.3,1.8-.674,2.633-1.327,4.07l-0.767.173c-0.454,1.428.756,3.176,0.791,4.84l-0.766.164q2.432,6.378,4.874,12.969l-0.764.138q0.875,1.756,1.749,3.533l-0.764.131,0.875,1.778-0.764.127q1.313,2.67,2.624,5.385l-0.762.116q1.022,2.109,2.041,4.244l-0.761.108q1.166,2.436,2.33,4.909l-0.76.1q0.582,1.234,1.165,2.478l-0.76.092q0.729,1.551,1.456,3.117l-0.759.086q0.873,1.875,1.745,3.772l-0.758.077q0.873,1.893,1.743,3.807l-0.756.069q0.871,1.911,1.74,3.842l-0.754.062,0.579,1.287-0.754.059q0.579,1.287,1.159,2.584-0.379,4.374-.751,8.746l-1.5.071-0.171,1.343q-2.625.117-5.255,0.242-2.232-1.539-4.472-3.03l-0.753.046q-0.44-.948-0.881-1.889l-0.754.051q-0.441-.94-0.882-1.875l-0.755.056q-2.733-4.944-5.479-9.721c-4.317-5.021-8.46-14.839-9-19.418q-0.887-1.707-1.773-3.4l0.764-.125q-0.444-.846-0.886-1.689l0.764-.127q-0.738-1.407-1.475-2.8l0.765-.131-0.59-1.117,0.765-.133q-0.737-1.4-1.472-2.781l0.765-.137q-0.354-1.455-.7-2.9l0.765-.141q-0.294-.552-0.587-1.1l0.765-.143q-0.5-1.725-.994-3.441l0.766-.148q-0.113-1.791-.224-3.578l0.766-.153q-0.2-1.167-.4-2.331,1.094-1.126,2.19-2.262-0.291-.543-0.583-1.084,0.858-.784,1.717-1.572l-0.582-1.083,1.243-.874q-0.159-2.685-.312-5.36l0.767-.176q-1.067-2.77-2.126-5.506c-0.889-10.611-9.365-22.841-10.47-32.824q-1.82-3.177-3.621-6.307c0.255-.074.509-0.149,0.764-0.225q-1.108-1.926-2.211-3.837l0.763-.227q-1.377-2.388-2.743-4.753l0.761-.228-1.363-2.36,0.76-.229q-1.224-2.118-2.437-4.22l0.759-.23q-1.214-2.1-2.416-4.187l0.757-.231q-2.294-4.749-4.528-9.431l0.751-.227q-0.783-1.371-1.559-2.736l0.749-.227q-0.906-1.592-1.8-3.178l0.747-.226q-1.028-1.81-2.041-3.616l0.745-.223q-1.27-2.253-2.518-4.5l0.741-.22q-0.874-1.569-1.738-3.136l0.738-.217q-0.741-1.341-1.473-2.679l0.735-.216q-0.612-1.114-1.217-2.227a20.918,20.918,0,0,0-1.842-9.7,1.55,1.55,0,0,1-.955-0.235c-1.317.66-.652,0.122-1.211,0.844-3.31,1.463-4.931,4.269-6.575,6.225q-0.132.539-.263,1.077-0.966.476-1.931,0.939-0.378.846-.757,1.691-0.72.153-1.438,0.3-4.319,5.726-8.666,11.337-0.723.117-1.443,0.229-2.369,3.219-4.748,6.433-0.724.1-1.447,0.2-0.885,1.432-1.773,2.868l-1.449.186q-0.138.546-.277,1.093-1.113.936-2.228,1.869l0.223,0.5-1.228.682q0.224,0.507.449,1.014l-3.243,3.072q0.225,0.513.452,1.025l-0.731.087q0.226,0.513.454,1.027l-1.74,1.292q-0.026.817-.049,1.637-0.734.09-1.467,0.176l0.228,0.519q-1.834.219-3.666,0.425c-1.773-1.39-3.008-2.074-4.153-4.516l0.724-.069q-0.173-1.356-.336-2.708l1.229-.659q-0.21-.525-0.418-1.052l2.242-1.83q-0.209-.522-0.414-1.044c3.454-3.728,6.882-7.4,10.288-11.074l1.416-.15q2.4-3.135,4.775-6.26,0.707-.086,1.413-0.175,2.874-3.717,5.727-7.449,1.092-.927,2.183-1.864c-0.07-.158-0.141-0.315-0.211-0.473q0.7-.113,1.409-0.231,1.861-2.59,3.717-5.2,0.948-.429,1.9-0.871l0.765-1.661c0.469-.1.94-0.2,1.41-0.3q1.849-2.652,3.694-5.34,0.7-.169,1.412-0.345,0.867-1.466,1.733-2.938,0.949-.5,1.9-1.011,1.107-1.8,2.214-3.622,0.707-.209,1.416-0.426,0.132-.538.265-1.077,2.477-.765,4.976-1.633c2.867,1.539,3.277,1.228,5.171,4.683-1.248,1.641-.007,1.131-0.265,2.646l-0.725.267q0.237,0.423.475,0.846l-0.726.265q0.237,0.424.476,0.848l-0.727.263q0.477,0.849.957,1.7c-0.243.089-.486,0.176-0.729,0.263q0.48,0.852.963,1.706l-0.73.262q0.6,1.07,1.211,2.14l-0.732.262,0.731,1.288c-0.244.088-.489,0.175-0.733,0.261q0.73,2.067,1.477,4.144l-0.738.261q0.743,1.3,1.492,2.6l-0.74.261q1.128,2.74,2.28,5.5c0.474,7.986,7.147,17.479,7.878,25.878q1.077,1.839,2.163,3.7l-0.759.259q1.356,2.32,2.725,4.665l-0.761.257q2.493,5.054,5.031,10.233l-0.763.25q0.972,1.684,1.95,3.386l-0.764.247q0.837,1.457,1.678,2.926l-0.764.244q1.12,1.957,2.247,3.938l-0.766.239q1.689,2.968,3.391,5.992l-0.767.232q1.276,2.265,2.557,4.564l-0.767.226q1.281,2.295,2.568,4.625c0.423,4.074,1.965,10.192,4.878,13.826a14.256,14.256,0,0,0,4.125-.455c0.75-1.464,2.162-2.051,3.45-3.413q0.336-1.028.671-2.059l1.535-.433,0.672-2.076,1.535-.448,0.192-1.318,1.536-.458q0.336-1.052.673-2.105,0.768-.235,1.535-0.474,0.338-1.059.675-2.123,1.392-.759,2.784-1.534c-0.1-.183-0.191-0.366-0.287-0.548q1.008-.649,2.017-1.308l0.195-1.356,1.536-.52q0.338-1.088.676-2.179l1.536-.537q0.1-.685.2-1.373l1.536-.549q0.339-1.1.678-2.212l1.537-.567,0.195-1.39q1.395-.852,2.789-1.719,0.1-.7.2-1.4,1.394-.873,2.789-1.761,0.1-.708.2-1.418,2.02-1.479,4.042-2.994,0.1-.718.2-1.438l1.539-.646q0.1-.723.2-1.446l1.538-.659,0.2-1.454q1.395-.948,2.792-1.911c-0.1-.188-0.191-0.376-0.287-0.563q0.771-.342,1.54-0.686,0.1-.736.2-1.473,0.771-.348,1.54-0.7,0.1-.74.2-1.482,1.4-.989,2.794-1.99l0.2-1.5q2.024-1.653,4.049-3.338l0.2-1.515q1.4-1.035,2.8-2.079l0.2-1.529,2.313-1.15c-0.1-.192-0.191-0.385-0.287-0.577q1.014-.865,2.027-1.74l0.2-1.546q1.4-1.074,2.8-2.157l0.2-1.56,2.316-1.2q0.1-.785.2-1.569,1.4-1.1,2.8-2.206l0.2-1.581q2.03-1.815,4.061-3.645l0.2-1.6,1.546-.831q0.926-3.117,1.853-6.251c-5.465-10.7-17.536-25.214-8.774-35.138q3.848-2.52,7.707-5.012c2.515,0.633,1.208-.466,3.658-0.867q1.729,0.382,3.462.8,0.772-.479,1.547-0.955,2.263,0.477,4.532,1.018,0.775-.462,1.551-0.919,0.675,0.36,1.35.726l0.777-.451q0.675,0.369,1.351.746,0.777-.446,1.554-0.886,1.209,0.462,2.419.945,0.779-.43,1.557-0.857,0.677,0.4,1.355.8,1.99,0.084,3.984.213,1.646,1.476,3.3,3l0.781-.388c2.258,2,1.879,7.891,1.421,9.51q-0.882,1.211-1.762,2.428-1.082,2.889-2.161,5.784-0.78.384-1.559,0.771-0.345,1.351-.689,2.7-0.779.387-1.557,0.778-0.1.836-.2,1.672-0.779.39-1.556,0.783-0.1.836-.2,1.67-1.411,1.1-2.822,2.216l-0.2,1.665c-2.579,3.589-6.043,5.81-4.877,10.286l-0.776.394q3.855,7.374,7.712,15.121,4.53,8.218,9.041,16.86l0.778-.328q2.007,4.832,4,9.751l0.777-.312q4.09,8.989,8.11,18.265l0.776-.29q1.393,3.621,2.772,7.272l0.775-.284q1.379,3.652,2.737,7.331l0.774-.279q2.31,6.253,4.556,12.561l0.772-.275q2.373,6.674,4.66,13.376l0.769-.275c2.366,6.942,4.651,13.889,6.828,20.791a53.4,53.4,0,0,1,5.569,12.639q1.083,3.646,2.117,7.26l0.753-.315c2.425,3.64,2.633,10.786,4.657,13.9q1.656,6.3,3.118,12.413c3.012,4.607,3.968,13.7,5.131,19.793q0.6,3.115,1.14,6.13,0.368-.242.736-0.486c0.858,4.8,1.586,9.39,2.187,13.738l0.743-.568c0.681,4.859,1.206,9.407,1.6,13.59,1.358,1.407.059,6.849,1.479,7.919,1.692,1.233,1.225,5.817,1.38,8.3-2.862,3.641-2.645,4-7.543,9.173a22.514,22.514,0,0,1-2.41,1.5c-4.151,2.392.567-8.13-1.474-10.375-1.323-1.607-1.009-7.163-1.353-11.287-0.616-4.591-1.4-9.536-2.375-14.772q-0.773-5.7-1.817-11.777c-4.162-6.992-3.787-22.986-9.122-31.442-2.21-3.578-2.407-10.805-4.529-14.119-1.943-7.06-4.039-14.215-6.254-21.4-2.4-3.62-2.959-11.33-5.756-15.381l-0.763.272q-1.846-5.6-3.768-11.191l-0.766.271q-0.384-1.118-.771-2.234-1.29-3.72-2.606-7.427l-0.77.272q-1.449-4.074-2.926-8.125l-0.772.276q-2.552-6.99-5.177-13.882l-0.773.285q-2.484-6.517-5.016-12.922l-0.775.3c-0.094-.236-0.187-0.473-0.281-0.709q-1.548-3.9-3.108-7.753l-0.775.31q-0.993-2.445-1.99-4.87l-0.776.317q-1.283-3.111-2.57-6.184l-0.776.327q-1.574-3.749-3.154-7.435l-0.776.34q-5.844-12.539-11.725-24.216c-2.341.152-3.289,0.142-6.771,1.913a22.146,22.146,0,0,1-3.2,5.4l-1.547.778-0.2,1.6-2.319,1.155q-0.1.795-.2,1.59-1.4,1.065-2.8,2.123l-0.2,1.578q-2.029,1.728-4.058,3.434l-0.2,1.56-1.544.732q0.144,0.3.287,0.594l-1.543.727c0.1,0.2.192,0.395,0.287,0.593l-1.543.722q0.144,0.3.287,0.591l-1.542.716-0.2,1.536q-1.012.827-2.026,1.645c0.1,0.2.191,0.393,0.287,0.589q-1.157.523-2.313,1.042-0.341,1.224-.681,2.445l-1.542.679q-0.1.753-.2,1.507l-1.541.667q-0.1.75-.2,1.5-1.4.95-2.795,1.888-0.1.743-.2,1.485l-1.54.637c0.1,0.193.191,0.387,0.287,0.581l-1.54.63q-0.339,1.182-.679,2.361-1.155.462-2.309,0.919-0.1.729-.2,1.457-1.395.891-2.791,1.768c0.1,0.191.191,0.383,0.287,0.575q-1.01.729-2.021,1.448L424.409,735l-1.538.568q0.144,0.285.287,0.573-1.01.708-2.02,1.41-0.1.71-.194,1.419l-1.538.544q-0.338,1.125-.675,2.248-1.393.816-2.787,1.617-0.338,1.112-.675,2.22-1.392.791-2.785,1.567-0.1.69-.193,1.38l-1.536.485q-0.336,1.089-.673,2.175-1.392.755-2.783,1.5-0.816,1.869-1.631,3.723l-1.535.437q-0.094.672-.191,1.344-1.006.6-2.013,1.2l0.288,0.563-1.534.416q-0.335,1.05-.669,2.1-0.767.2-1.534,0.4l-0.189,1.322-1.534.392-0.189,1.315-1.534.383q0.145,0.279.289,0.56A7.047,7.047,0,0,1,392.358,769.462Zm73.182-129.53c-0.384,2.531-.954,1.9.457,4.911-1.068,2.481,5.346,10.988,6.893,14.059a22.377,22.377,0,0,0,5.715-2.366c0.974-2.475,3.132-4.022,4.767-6.43l0.687-2.691q0.777-.418,1.555-0.832c-0.1-.208-0.193-0.415-0.289-0.621,1.54-2.752,2.062-3.76.512-7.241q-3.054-.272-6.1-0.446-0.675-.378-1.351-0.751-1.695.6-3.388,1.211-0.675-.361-1.349-0.715c-1.613-.131-3.515.331-5.015,0.018Q467.085,638.98,465.54,639.932ZM385.454,797.161c-1.9.772-1.627,0.447-1.412,2.109-0.885,1.1-.226,1.161-0.353,2.555l-0.763.121q3.261,8.834,6.534,18.044a2.006,2.006,0,0,1,1.052.522c0.614-.61.148,0.065,0.466-0.693,1.324-2.091-1.078-3.4-1.416-6.221Q387.5,805.261,385.454,797.161Z" transform="translate(-290 -628)"/>
  </g>
</svg>
