<svg xmlns="http://www.w3.org/2000/svg" width="17.062" height="134.876" viewBox="0 0 17.062 134.876">
  <defs>
    <style>
      .cls-1 {
        fill: #fff;
        fill-rule: evenodd;
      }
    </style>
  </defs>
  <path id="みずいろスタジオ" class="cls-1" d="M963.226,771.132q0.4,0.159,3.929,1.5l0.466,0.185a1.179,1.179,0,0,1,.466.307,0.511,0.511,0,0,0,.307.176,0.45,0.45,0,0,0,.308-0.158,5.628,5.628,0,0,0,.993-1.231,0.4,0.4,0,0,0,.07-0.246,0.389,0.389,0,0,0-.07-0.237,2.252,2.252,0,0,1-.307-0.879,20.369,20.369,0,0,1-.238-2.8c-0.006-.129-0.009-0.243-0.009-0.343a6.172,6.172,0,0,1,.115-1.239,10.369,10.369,0,0,0-1.96.527,0.284,0.284,0,0,0-.2.282,0.879,0.879,0,0,0,.07.325,3.539,3.539,0,0,1,.2.817q0.159,1.266.29,2.479-2.022-.6-4.263-1.494a6.212,6.212,0,0,0-1.019-3.586,3.461,3.461,0,0,0-2.962-1.723,2.615,2.615,0,0,0-1.811.6,1.993,1.993,0,0,0-.659,1.547,3.048,3.048,0,0,0,.993,2.3,14.487,14.487,0,0,0,3.6,2.2,11.711,11.711,0,0,1-1.1,3.559,9.233,9.233,0,0,1-2.373-1.3,12.22,12.22,0,0,1-2.5-2.733,4.144,4.144,0,0,1-.747,1.573,0.549,0.549,0,0,0-.123.264,0.787,0.787,0,0,0,.2.36,11.375,11.375,0,0,0,1.943,2.013,13.14,13.14,0,0,0,2.795,1.626,15.135,15.135,0,0,1-1.7,2.364,0.336,0.336,0,0,0-.123.211,0.215,0.215,0,0,0,.123.167,12.9,12.9,0,0,0,1.547.774,0.767,0.767,0,0,0,.185.035,0.228,0.228,0,0,0,.193-0.15,18.7,18.7,0,0,0,1.732-2.8q1.467,0.333,2.32.5a4.366,4.366,0,0,1,.7.29,0.287,0.287,0,0,0,.176.052,0.333,0.333,0,0,0,.307-0.184,7.448,7.448,0,0,0,.774-2.083,6.347,6.347,0,0,1-.7.044A5.1,5.1,0,0,1,964.65,775a18.96,18.96,0,0,1-2.32-.378,15.824,15.824,0,0,0,.9-3.489h0Zm-3.744-3.964a1.453,1.453,0,0,1-.685-1.037q0-.633.826-0.633a1.648,1.648,0,0,1,1.309.7,3.733,3.733,0,0,1,.748,2.277,11.951,11.951,0,0,1-2.2-1.31h0Zm7.313,15.624q-0.106-1.318-.106-1.626a5.646,5.646,0,0,1,.027-0.572,11.856,11.856,0,0,0-1.811.449,0.308,0.308,0,0,0-.255.307,1.364,1.364,0,0,0,.079.308,3.873,3.873,0,0,1,.141.536q0.317,2.3.536,6.232l-1.837.017a2.078,2.078,0,0,0,.361-1.371,2.717,2.717,0,0,0-.633-1.8,2.556,2.556,0,0,0-2.066-.914,2.886,2.886,0,0,0-1.933.633,2.318,2.318,0,0,0-.826,1.872,1.9,1.9,0,0,0,.72,1.688,4.614,4.614,0,0,1-2.056-1.055,7.107,7.107,0,0,1-1.9-2.637,4,4,0,0,1-.721,1.371,1.013,1.013,0,0,0-.272.536,1.826,1.826,0,0,0,.343.7,6.59,6.59,0,0,0,5.809,3.208,5.113,5.113,0,0,0,1.784-.273q1.1-.018,3.349-0.018,0.009,1.029.009,2.022,0,1.783-.044,3.472v0.07a0.206,0.206,0,0,0,.237.228q0.352,0.018.681,0.018t0.682-.018a0.4,0.4,0,0,0,.219-0.052,0.288,0.288,0,0,0,.053-0.211q0-3.129-.088-5.529,1.037,0.027,1.152.036a1.738,1.738,0,0,1,.518.149,0.938,0.938,0,0,0,.413.158q0.255,0,.343-0.5a15.807,15.807,0,0,0,.255-2.109,7.489,7.489,0,0,1-1.319.22c-0.164,0-.386.011-0.668,0.017q-0.562.009-.826,0.018-0.237-4.122-.351-5.581h0Zm-4.535,5.247a1.092,1.092,0,0,1-.888.369,1.256,1.256,0,0,1-.9-0.316,1.222,1.222,0,0,1-.351-0.915,1.126,1.126,0,0,1,.272-0.773,1.211,1.211,0,0,1,.958-0.378,1.109,1.109,0,0,1,.844.343,1.189,1.189,0,0,1,.325.852,1.218,1.218,0,0,1-.263.818h0Zm5.581,5.95a0.211,0.211,0,0,0-.115.158,0.312,0.312,0,0,0,.053.15l0.563,0.755a0.194,0.194,0,0,0,.158.1,0.251,0.251,0,0,0,.132-0.053,7.8,7.8,0,0,0,1.924-1.705,0.28,0.28,0,0,0,.08-0.153,0.206,0.206,0,0,0-.044-0.119l-0.668-.949a8.956,8.956,0,0,1-2.083,1.819h0Zm0.7,2.048a0.215,0.215,0,0,0-.114.167,0.259,0.259,0,0,0,.052.14l0.563,0.721a0.222,0.222,0,0,0,.176.106,0.312,0.312,0,0,0,.149-0.053,7.007,7.007,0,0,0,1.854-1.705,0.284,0.284,0,0,0,.08-0.158,0.239,0.239,0,0,0-.044-0.115l-0.651-.9a8.532,8.532,0,0,1-2.065,1.8h0Zm-2.778,2.9a31.61,31.61,0,0,0-5.238.431,8,8,0,0,0-3.322,1.213,2.673,2.673,0,0,0-1.371,2.153,2.5,2.5,0,0,0,.624,1.635,5.08,5.08,0,0,0,2.179,1.424,0.916,0.916,0,0,0,.282.053,0.508,0.508,0,0,0,.386-0.185,7.546,7.546,0,0,1,1.389-1.151,10.044,10.044,0,0,1-1.872-.853,1.119,1.119,0,0,1-.633-0.87q0-1.011,2.646-1.476a23.913,23.913,0,0,1,4.1-.326,6.6,6.6,0,0,1,1.767.159,1.461,1.461,0,0,0,.5.149,0.393,0.393,0,0,0,.325-0.29,7.056,7.056,0,0,0,.589-2.285,11.065,11.065,0,0,1-2.356.219h0Zm-2.856,11.031a14.428,14.428,0,0,1-3.621,1.327,0.228,0.228,0,0,0-.229.22,0.551,0.551,0,0,0,.027.158,6.685,6.685,0,0,0,.72,1.406,0.363,0.363,0,0,0,.29.211,0.385,0.385,0,0,0,.106-0.018,10.94,10.94,0,0,0,3.173-1.2,10.66,10.66,0,0,0,2.988-2.329,0.3,0.3,0,0,0,.106-0.193,0.619,0.619,0,0,0-.071-0.2q-0.264-.528-0.826-1.416a12.133,12.133,0,0,1-2.663,2.031h0Zm4.228,8.293a0.464,0.464,0,0,0-.343.36,0.945,0.945,0,0,0,.123.378q0.105,0.255.237,0.7,0.483,2.3.721,3.436-2.83-2.391-4.755-4.157-2.013-1.917-3.278-3.3a0.306,0.306,0,0,0-.211-0.141,0.491,0.491,0,0,0-.22.123,8.3,8.3,0,0,0-1.1,1.046,0.348,0.348,0,0,0-.123.238,0.447,0.447,0,0,0,.2.29A15.9,15.9,0,0,1,960.177,819a9.868,9.868,0,0,1,1.573,2.382,7.4,7.4,0,0,1,.729,3.112,3,3,0,0,1-.483,1.766,1.991,1.991,0,0,1-1.732.826q-3.3,0-4.166-6.75a4.156,4.156,0,0,1-1.362,1.24,0.46,0.46,0,0,0-.3.395,1.734,1.734,0,0,0,.044.308,11.322,11.322,0,0,0,1.741,4.913,4.472,4.472,0,0,0,3.805,2.074,3.9,3.9,0,0,0,2.8-1.055,4.307,4.307,0,0,0,1.283-3.287,7.239,7.239,0,0,0-1.028-3.691l0.07-.07q3.719,3.664,4.2,4.122a5.79,5.79,0,0,1,.572.7,0.584,0.584,0,0,0,.5.378,0.5,0.5,0,0,0,.325-0.123,5.211,5.211,0,0,0,1.213-1.213,0.509,0.509,0,0,0,.14-0.317,0.5,0.5,0,0,0-.123-0.325,2.569,2.569,0,0,1-.325-0.975q-0.273-1.469-.51-3.472a23.259,23.259,0,0,1-.105-2.382,10.647,10.647,0,0,0-1.907.7h0ZM965.564,844.1a3.472,3.472,0,0,1,.8.66,0.475,0.475,0,0,0,.36.237,0.512,0.512,0,0,0,.229-0.088,6.4,6.4,0,0,0,1.266-1.169,0.744,0.744,0,0,0,.14-0.307,0.34,0.34,0,0,0-.07-0.2,2.964,2.964,0,0,1-.167-1.239v-4.948q0-2.074.07-3.041a8.665,8.665,0,0,0-1.872.158c-0.217.041-.319,0.12-0.307,0.237q0.114,1.459.114,2.848l0.017,4.641a22.757,22.757,0,0,1-6.838-6,25.006,25.006,0,0,1-2.267-3.726,4.981,4.981,0,0,1-1.178,1.512,0.392,0.392,0,0,0-.158.307,1.512,1.512,0,0,0,.141.413,26.036,26.036,0,0,0,4.754,6.047,32.69,32.69,0,0,1-4.464,4.676,0.417,0.417,0,0,0-.141.255,0.337,0.337,0,0,0,.1.22,9.7,9.7,0,0,0,1.231,1.2,0.439,0.439,0,0,0,.264.123,0.386,0.386,0,0,0,.254-0.141A43.808,43.808,0,0,0,962.2,841.8a31.21,31.21,0,0,0,3.366,2.3h0Zm-0.176,18.445a2.381,2.381,0,0,1,.686.536,0.478,0.478,0,0,0,.343.2,0.465,0.465,0,0,0,.325-0.14,5.447,5.447,0,0,0,1.1-1.231,0.636,0.636,0,0,0,.14-0.325,0.6,0.6,0,0,0-.123-0.307,1.917,1.917,0,0,1-.272-0.985l-0.071-3.173q0.528,0.352.9,0.563a1.333,1.333,0,0,1,.378.369,0.446,0.446,0,0,0,.36.22,0.31,0.31,0,0,0,.29-0.194,12.042,12.042,0,0,0,.879-2.109,7.965,7.965,0,0,1-2.215-.967,19.536,19.536,0,0,1-2.636-1.907,22.869,22.869,0,0,1-3.015-3.19,7.663,7.663,0,0,1-.826,1.511,0.4,0.4,0,0,0-.123.29,0.715,0.715,0,0,0,.158.361,23.14,23.14,0,0,0,4.052,3.849l0.088,4.465a17.575,17.575,0,0,1-3.56-2.109,19.028,19.028,0,0,0,1.441-2.321,0.62,0.62,0,0,0,.071-0.175,0.348,0.348,0,0,0-.123-0.238q-0.106-.105-1.284-1.186a15.566,15.566,0,0,1-1.7,2.593,23.09,23.09,0,0,1-2.557-2.822,26.279,26.279,0,0,1-2.321-3.8,5.342,5.342,0,0,1-.914,1.713,0.553,0.553,0,0,0-.158.343,1.051,1.051,0,0,0,.158.448,22.452,22.452,0,0,0,4.5,5.74,17.683,17.683,0,0,1-1.749,1.749,0.291,0.291,0,0,0-.105.193,0.39,0.39,0,0,0,.088.22,8.517,8.517,0,0,0,1.133,1.116,0.352,0.352,0,0,0,.238.106,0.372,0.372,0,0,0,.255-0.106,16.227,16.227,0,0,0,1.81-1.942,28.893,28.893,0,0,0,4.359,2.645h0Zm-4.086,7.889a0.385,0.385,0,0,0-.106.216,0.411,0.411,0,0,0,.176.233,7.966,7.966,0,0,0,1.371.791,0.642,0.642,0,0,0,.2.07,0.375,0.375,0,0,0,.264-0.194,12.893,12.893,0,0,0,1.766-3.462,0.2,0.2,0,0,0,.009-0.062,0.353,0.353,0,0,0-.184-0.272c-0.112-.083-0.3-0.2-0.554-0.361l-0.984-.6a15.963,15.963,0,0,1-1.96,3.638h0Zm3.972,2.031a0.475,0.475,0,0,0-.123.272,0.193,0.193,0,0,0,.106.176,7.422,7.422,0,0,0,1.353.923,0.486,0.486,0,0,0,.237.07,0.277,0.277,0,0,0,.229-0.141,11.96,11.96,0,0,0,2-3.383,0.489,0.489,0,0,0,.062-0.2,0.335,0.335,0,0,0-.2-0.255l-1.441-.949a15.379,15.379,0,0,1-2.215,3.49h0Zm-9.87-2.918a0.463,0.463,0,0,0-.22.36,0.413,0.413,0,0,0,.141.29,8.333,8.333,0,0,1,.615,1.046,43.2,43.2,0,0,0,3.384,5.379,38.291,38.291,0,0,0,4.157,4.579,0.6,0.6,0,0,0,.413.193,0.936,0.936,0,0,0,.343-0.088,11.127,11.127,0,0,1,2.013-.527,31.4,31.4,0,0,1-5.019-5.186,32.125,32.125,0,0,1-3.111-4.93,9.244,9.244,0,0,1-.888-2.444,10.919,10.919,0,0,0-1.828,1.328h0Zm11.338,9.492a0.21,0.21,0,0,0-.114.158,0.264,0.264,0,0,0,.052.141l0.563,0.755a0.2,0.2,0,0,0,.158.106,0.26,0.26,0,0,0,.132-0.053,7.8,7.8,0,0,0,1.925-1.705,0.281,0.281,0,0,0,.079-0.167,0.2,0.2,0,0,0-.044-0.1l-0.668-.95a9.444,9.444,0,0,1-2.083,1.82h0Zm1.2,1.635a0.2,0.2,0,0,0-.114.167,0.242,0.242,0,0,0,.061.14l0.554,0.721a0.222,0.222,0,0,0,.176.105,0.269,0.269,0,0,0,.149-0.052,6.994,6.994,0,0,0,1.855-1.714,0.247,0.247,0,0,0,.079-0.145,0.209,0.209,0,0,0-.044-0.119l-0.65-.9a8.537,8.537,0,0,1-2.066,1.8h0Zm-9.773,11.061c-0.065.006-.138,0.009-0.22,0.009a1.269,1.269,0,0,1-.6-0.105,0.622,0.622,0,0,1-.246-0.422,15.152,15.152,0,0,1-.184-2.54,4.136,4.136,0,0,1-1.6,1.265,0.52,0.52,0,0,0-.308.554,4.8,4.8,0,0,0,.633,2.487,1.841,1.841,0,0,0,1.705.871c0.065,0,.132,0,0.2-0.009l6.768-.325v1.459q0,1.248-.088,3.454a0.225,0.225,0,0,0,.255.255c0.264,0,.524.008,0.782,0.008s0.516,0,.774-0.008a0.221,0.221,0,0,0,.219-0.273q-0.087-2.207-.087-3.489v-1.565l1.371-.061q0.43-.018.712-0.018a3.708,3.708,0,0,1,.94.1,1.174,1.174,0,0,0,.272.07,0.229,0.229,0,0,0,.211-0.237,16.472,16.472,0,0,0,.2-2.268,9.391,9.391,0,0,1-2.126.29l-1.6.071v-4.281q0-1.872.088-3.225-1.423.079-1.74,0.141-0.334.034-.308,0.254,0.087,1.557.088,2.883l0.017,3.147a17.662,17.662,0,0,1-2.786-2.646,23.565,23.565,0,0,1-2.847-4.192,3.569,3.569,0,0,1-1.064,1.476,0.382,0.382,0,0,0-.176.308,0.815,0.815,0,0,0,.159.413,18.418,18.418,0,0,0,2.522,3.4,16.315,16.315,0,0,0,2.769,2.54Z" transform="translate(-954.25 -763.812)"/>
</svg>
