<svg xmlns="http://www.w3.org/2000/svg" width="512" height="512" viewBox="0 0 512 512">
  <defs>
    <style>
      .cls-1 {
        fill: #f9f4da;
        fill-rule: evenodd;
      }
    </style>
  </defs>
  <g id="logo">
    <path id="三角形_1" data-name="三角形 1" class="cls-1" d="M2962.12,266.188a17.064,17.064,0,1,1,17.11-17.064A17.087,17.087,0,0,1,2962.12,266.188Zm12.22-105.632a16.243,16.243,0,0,1-25.98-4.156l-0.1.074s-0.03-.167-0.1-0.474a16.375,16.375,0,0,1-1.43-6.9V149.06c-3.58-17.554-12.02-60.4-9.73-63.06,2.89-3.345,36.56,50.623,36.56,50.623l-0.18.142c0.33,0.28.65,0.565,0.96,0.877A16.439,16.439,0,0,1,2974.34,160.556Zm-14.41,167.471q11.25,0,14.17,13.163L2992.18,427h-4.88l-33.24-69.719q-5.37-11.7-5.38-17.551Q2948.68,328.027,2959.93,328.027Z" transform="translate(-2708)"/>
  </g>
</svg>
